<?xml version="1.0"?>
<svg width="640" height="480" xmlns="http://www.w3.org/2000/svg" xmlns:svg="http://www.w3.org/2000/svg" xmlns:xlink="http://www.w3.org/1999/xlink">
 <!-- Created with SVG-edit - https://github.com/SVG-Edit/svgedit-->
 <defs>
  <symbol height="60" id="svg_1" viewBox="0 0 218 60" width="218" xmlns="http://www.w3.org/2000/svg">
   <path d="m23.4915,45.936l-7.104,-14.08l-3.2,0l0,14.08l-12.8,0l0,-44.8l17.92,0c4.9067,0 8.96,1.45066 12.16,4.352c3.2,2.85866 4.8,6.656 4.8,11.392c0,2.6453 -0.6187,5.0347 -1.856,7.168c-1.1947,2.1333 -2.88,3.8613 -5.056,5.184l8.832,16.704l-13.696,0zm-10.304,-33.024l0,8.32l4.864,0c1.3653,0.0427 2.432,-0.2987 3.2,-1.024c0.8107,-0.7253 1.216,-1.7493 1.216,-3.072c0,-1.3227 -0.4053,-2.3467 -1.216,-3.072c-0.768,-0.768 -1.8347,-1.152 -3.2,-1.152l-4.864,0zm42.703,34.112c-4.864,0 -8.9173,-1.0027 -12.16,-3.008c-3.2427,-2.048 -5.4187,-4.8 -6.528,-8.256l10.944,-6.336c1.4933,3.7973 4.1813,5.696 8.064,5.696c2.9013,0 4.352,-0.768 4.352,-2.304c0,-0.4267 -0.1067,-0.8107 -0.32,-1.152c-0.2133,-0.3413 -0.6187,-0.64 -1.216,-0.896c-0.5973,-0.256 -1.1307,-0.448 -1.6,-0.576c-0.4267,-0.1707 -1.1947,-0.4053 -2.304,-0.704c-1.1093,-0.2987 -1.9413,-0.5333 -2.496,-0.704c-8.9173,-2.688 -13.376,-7.488 -13.376,-14.4c0,-4.096 1.472,-7.488 4.416,-10.176c2.9867,-2.688 6.8907,-4.032 11.712,-4.032c3.7973,0 7.1893,0.896 10.176,2.688c3.0293,1.792 5.248,4.37333 6.656,7.744l-10.624,6.208c-1.2373,-3.1573 -3.2853,-4.736 -6.144,-4.736c-1.1093,0 -1.9627,0.2347 -2.56,0.704c-0.5547,0.4267 -0.832,0.9813 -0.832,1.664c0,0.9387 0.4907,1.664 1.472,2.176c1.024,0.512 2.9653,1.1733 5.824,1.984c2.1333,0.64 3.8827,1.2587 5.248,1.856c1.3653,0.5547 2.7947,1.3653 4.288,2.432c1.4933,1.024 2.6027,2.368 3.328,4.032c0.768,1.6213 1.152,3.5413 1.152,5.76c0,4.5653 -1.5787,8.1067 -4.736,10.624c-3.1147,2.4747 -7.36,3.712 -12.736,3.712z" fill="white"/>
   <path d="m90,33.584l14.72,0l0,12.416l-27.52,0l0,-44.8l12.8,0l0,32.384zm39.447,-19.584l11.84,0l0,32l-11.84,0l0,-2.88c-2.048,2.5173 -4.907,3.776 -8.576,3.776c-4.31,0 -7.83,-1.6 -10.56,-4.8c-2.731,-3.2 -4.096,-7.232 -4.096,-12.096c0,-4.864 1.365,-8.896 4.096,-12.096c2.73,-3.2 6.25,-4.8 10.56,-4.8c3.669,0 6.528,1.2587 8.576,3.776l0,-2.88zm-9.856,20.288c1.066,1.152 2.453,1.728 4.16,1.728c1.706,0 3.072,-0.576 4.096,-1.728c1.066,-1.152 1.6,-2.5813 1.6,-4.288c0,-1.7067 -0.534,-3.136 -1.6,-4.288c-1.024,-1.152 -2.39,-1.728 -4.096,-1.728c-1.707,0 -3.094,0.576 -4.16,1.728c-1.024,1.152 -1.536,2.5813 -1.536,4.288c0,1.7067 0.512,3.136 1.536,4.288zm47.26,-21.184c3.499,0 6.293,1.216 8.384,3.648c2.133,2.3893 3.2,5.9733 3.2,10.752l0,18.496l-11.84,0l0,-17.216c0,-2.8587 -1.323,-4.288 -3.968,-4.288c-1.408,0 -2.496,0.448 -3.264,1.344c-0.725,0.896 -1.088,2.1333 -1.088,3.712l0,16.448l-11.84,0l0,-32l11.84,0l0,3.136c1.963,-2.688 4.821,-4.032 8.576,-4.032zm38.544,0.896l11.84,0l0,31.04c0,2.56 -0.491,4.8213 -1.472,6.784c-0.939,1.9627 -2.219,3.4987 -3.84,4.608c-1.622,1.152 -3.414,2.0053 -5.376,2.56c-1.92,0.5547 -3.947,0.832 -6.08,0.832c-3.755,0 -7.083,-0.6827 -9.984,-2.048c-2.902,-1.3653 -5.056,-3.2853 -6.464,-5.76l9.6,-5.568c1.536,2.0907 3.605,3.136 6.208,3.136c1.493,0 2.794,-0.384 3.904,-1.152c1.109,-0.7253 1.664,-1.856 1.664,-3.392l0,-3.2c-2.048,2.5173 -4.907,3.776 -8.576,3.776c-4.267,0 -7.787,-1.5573 -10.56,-4.672c-2.731,-3.1147 -4.096,-6.976 -4.096,-11.584c0,-4.608 1.365,-8.4693 4.096,-11.584c2.773,-3.1147 6.293,-4.672 10.56,-4.672c3.669,0 6.528,1.2587 8.576,3.776l0,-2.88zm-9.856,19.456c1.066,1.1093 2.453,1.664 4.16,1.664c1.706,0 3.072,-0.5547 4.096,-1.664c1.066,-1.1093 1.6,-2.4747 1.6,-4.096c0,-1.6213 -0.534,-2.9867 -1.6,-4.096c-1.024,-1.1093 -2.39,-1.664 -4.096,-1.664c-1.707,0 -3.094,0.5547 -4.16,1.664c-1.024,1.1093 -1.536,2.4747 -1.536,4.096c0,1.6213 0.512,2.9867 1.536,4.096z" fill="black"/>
   <path d="m23.4915,45.936l-0.8928,0.4505l0.2773,0.5495l0.6155,0l0,-1zm-7.104,-14.08l0.8928,-0.4505l-0.2773,-0.5495l-0.6155,0l0,1zm-3.2,0l0,-1l-1,0l0,1l1,0zm0,14.08l0,1l1,0l0,-1l-1,0zm-12.8,0l-1,0l0,1l1,0l0,-1zm0,-44.8l0,-1l-1,0l0,1l1,0zm30.08,4.352l-0.6717,0.74085l0.0055,0.00491l0.6662,-0.74576zm2.944,18.56l-0.865,-0.5017l-0.0038,0.0065l-0.0037,0.0066l0.8725,0.4886zm-5.056,5.184l-0.5194,-0.8545l-0.8049,0.4892l0.4403,0.8327l0.884,-0.4674zm8.832,16.704l0,1l1.6599,0l-0.7759,-1.4674l-0.884,0.4674zm-24,-33.024l0,-1l-1,0l0,1l1,0zm0,8.32l-1,0l0,1l1,0l0,-1zm4.864,0l0.0312,-0.9995l-0.0156,-0.0005l-0.0156,0l0,1zm3.2,-1.024l-0.6668,-0.7452l-0.01,0.0089l-0.0098,0.0093l0.6866,0.727zm0,-6.144l-0.7071,0.7071l0.0196,0.0196l0.0207,0.0185l0.6668,-0.7452zm3.1328,31.4215l-7.104,-14.08l-1.7856,0.901l7.104,14.08l1.7856,-0.901zm-7.9968,-14.6295l-3.2,0l0,2l3.2,0l0,-2zm-4.2,1l0,14.08l2,0l0,-14.08l-2,0zm1,13.08l-12.8,0l0,2l12.8,0l0,-2zm-11.8,1l0,-44.8l-2,0l0,44.8l2,0zm-1,-43.8l17.92,0l0,-2l-17.92,0l0,2zm17.92,0c4.6946,0 8.4974,1.3811 11.4883,4.09283l1.3434,-1.48166c-3.4091,-3.09094 -7.7129,-4.61117 -12.8317,-4.61117l0,2zm11.4938,4.09776c2.9642,2.648 4.4662,6.16194 4.4662,10.64624l2,0c0,-4.9878 -1.698,-9.06843 -5.1338,-12.13776l-1.3324,1.49152zm4.4662,10.64624c0,2.4824 -0.5785,4.6964 -1.721,6.6663l1.73,1.0034c1.3322,-2.2968 1.991,-4.8614 1.991,-7.6697l-2,0zm-1.7285,6.6794c-1.1069,1.9766 -2.6678,3.5811 -4.7029,4.8181l1.0388,1.709c2.3169,-1.4083 4.1267,-3.2598 5.4091,-5.5499l-1.745,-0.9772zm-5.0675,6.14l8.832,16.704l1.768,-0.9348l-8.832,-16.704l-1.768,0.9348zm9.716,15.2366l-13.696,0l0,2l13.696,0l0,-2zm-25,-32.024l0,8.32l2,0l0,-8.32l-2,0zm1,9.32l4.864,0l0,-2l-4.864,0l0,2zm4.8328,-0.0005c1.5498,0.0484 2.9042,-0.3392 3.9178,-1.2965l-1.3732,-1.454c-0.5224,0.4933 -1.3014,0.7884 -2.4822,0.7515l-0.0624,1.999zm3.898,-1.2783c1.0678,-0.9553 1.5492,-2.2767 1.5492,-3.8172l-2,0c0,1.1048 -0.3292,1.8315 -0.8828,2.3268l1.3336,1.4904zm1.5492,-3.8172c0,-1.5405 -0.4814,-2.8619 -1.5492,-3.8172l-1.3336,1.4904c0.5536,0.4953 0.8828,1.222 0.8828,2.3268l2,0zm-1.5089,-3.7791c-1.0009,-1.0009 -2.3484,-1.4449 -3.9071,-1.4449l0,2c1.172,0 1.9578,0.324 2.4929,0.8591l1.4142,-1.4142zm-3.9071,-1.4449l-4.864,0l0,2l4.864,0l0,-2zm25.679,32.104l-0.534,0.8455l0.008,0.005l0.526,-0.8505zm-6.528,-8.256l-0.501,-0.8654l-0.6974,0.4037l0.2463,0.7673l0.9521,-0.3056zm10.944,-6.336l0.9306,-0.366l-0.4255,-1.0819l-1.0061,0.5825l0.501,0.8654zm12.096,2.24l-0.848,0.53l0,0l0.848,-0.53zm-1.216,-0.896l-0.3939,0.9191l0.3939,-0.9191zm-1.6,-0.576l-0.3714,0.9285l0.0531,0.0212l0.0552,0.0151l0.2631,-0.9648zm-2.304,-0.704l0.26,-0.9656l-0.26,0.9656zm-2.496,-0.704l0.2941,-0.9558l-0.0055,-0.0017l-0.2886,0.9575zm-8.96,-24.576l-0.669,-0.74332l-0.0053,0.00483l0.6743,0.73849zm21.888,-1.344l-0.5145,0.85751l0.0054,0.00317l0.5091,-0.86068zm6.656,7.744l0.5045,0.8634l0.7555,-0.4415l-0.3373,-0.8073l-0.9227,0.3854zm-10.624,6.208l-0.9311,0.3649l0.4265,1.0882l1.0091,-0.5897l-0.5045,-0.8634zm-8.704,-4.032l0.6097,0.7927l0.0081,-0.0064l-0.6178,-0.7863zm0.64,3.84l-0.4626,0.8866l0.0077,0.004l0.0077,0.0038l0.4472,-0.8944zm5.824,1.984l0.2874,-0.9578l-0.0073,-0.0022l-0.0073,-0.0021l-0.2728,0.9621zm5.248,1.856l-0.4008,0.9162l0.0121,0.0053l0.0123,0.005l0.3764,-0.9265zm4.288,2.432l-0.5812,0.8137l0.0078,0.0056l0.0079,0.0054l0.5655,-0.8247zm3.328,4.032l-0.9167,0.3996l0.0063,0.0143l0.0067,0.0142l0.9037,-0.4281zm-3.584,16.384l0.6221,0.783l0.0013,-0.0011l-0.6234,-0.7819zm-12.736,2.712c-4.7288,0 -8.5875,-0.9745 -11.634,-2.8585l-1.052,1.701c3.4388,2.1266 7.6868,3.1575 12.686,3.1575l0,-2zm-11.626,-2.8535c-3.0564,-1.9304 -5.0765,-4.4969 -6.1098,-7.7161l-1.9043,0.6112c1.1853,3.6928 3.5172,6.6303 6.9461,8.7959l1.068,-1.691zm-6.561,-6.5451l10.944,-6.336l-1.002,-1.7308l-10.944,6.336l1.002,1.7308zm9.5124,-6.8354c0.8009,2.0365 1.9519,3.6366 3.4897,4.7228c1.5414,1.0888 3.3951,1.6072 5.5049,1.6072l0,-2c-1.7729,0 -3.2045,-0.4309 -4.3511,-1.2408c-1.1502,-0.8124 -2.0898,-2.0604 -2.7823,-3.8212l-1.8612,0.732zm8.9946,6.33c1.5063,0 2.7905,-0.1938 3.7319,-0.6922c0.4855,-0.2571 0.9023,-0.6072 1.1943,-1.071c0.2943,-0.4674 0.4258,-0.9931 0.4258,-1.5408l-2,0c0,0.2203 -0.0498,0.3666 -0.1182,0.4752c-0.0707,0.1122 -0.1979,0.2421 -0.4377,0.369c-0.5093,0.2696 -1.401,0.4598 -2.7961,0.4598l0,2zm5.352,-3.304c0,-0.6023 -0.1533,-1.1721 -0.472,-1.682l-1.696,1.06c0.108,0.1727 0.168,0.371 0.168,0.622l2,0zm-0.472,-1.682c-0.3695,-0.5911 -0.9906,-0.994 -1.6701,-1.2851l-0.7878,1.8382c0.5152,0.2209 0.7047,0.4154 0.7619,0.5069l1.696,-1.06zm-1.6701,-1.2851c-0.6267,-0.2686 -1.2049,-0.4782 -1.7308,-0.6217l-0.5262,1.9296c0.4128,0.1125 0.9012,0.2869 1.4692,0.5303l0.7878,-1.8382zm-1.6225,-0.5854c-0.4876,-0.195 -1.3077,-0.4429 -2.4154,-0.7411l-0.52,1.9312c1.111,0.2991 1.8269,0.5206 2.1926,0.6669l0.7428,-1.857zm-2.4154,-0.7411c-1.1067,-0.298 -1.9248,-0.5289 -2.4619,-0.6942l-0.5882,1.9116c0.5722,0.176 1.4181,0.4144 2.5301,0.7138l0.52,-1.9312zm-2.4674,-0.6959c-4.3565,-1.3131 -7.5199,-3.1127 -9.5879,-5.3391c-2.0474,-2.2041 -3.0767,-4.8846 -3.0767,-8.1034l-2,0c0,3.6932 1.2,6.8687 3.6113,9.4646c2.3907,2.5736 5.9152,4.518 10.4761,5.8928l0.5772,-1.9149zm-12.6646,-13.4425c0,-3.8238 1.3602,-6.94481 4.0903,-9.43752l-1.3486,-1.47697c-3.1579,2.8833 -4.7417,6.54629 -4.7417,10.91449l2,0zm4.085,-9.43271c2.7677,-2.49096 6.4167,-3.77529 11.043,-3.77529l0,-2c-5.0163,0 -9.1754,1.40366 -12.381,4.2887l1.338,1.48659zm11.043,-3.77529c3.633,0 6.8441,0.85507 9.6615,2.54549l1.029,-1.71498c-3.156,-1.89358 -6.7288,-2.83051 -10.6905,-2.83051l0,2zm9.6669,2.54868c2.8364,1.67792 4.9141,4.08887 6.2424,7.26872l1.8454,-0.7708c-1.4877,-3.56148 -3.8474,-6.3132 -7.0696,-8.21929l-1.0182,1.72137zm6.6606,6.01992l-10.624,6.208l1.009,1.7268l10.624,-6.208l-1.009,-1.7268zm-9.1884,6.7065c-0.6648,-1.6962 -1.5789,-3.0497 -2.7846,-3.9791c-1.2175,-0.9385 -2.6649,-1.392 -4.2905,-1.392l0,2c1.2331,0 2.239,0.3358 3.0695,0.976c0.8423,0.6493 1.5708,1.6637 2.1434,3.1249l1.8622,-0.7298zm-7.0751,-5.3711c-1.2338,0 -2.3394,0.2589 -3.1778,0.9177l1.2356,1.5726c0.3562,-0.2799 0.9573,-0.4903 1.9422,-0.4903l0,-2zm-3.1697,0.9114c-0.7935,0.6104 -1.2223,1.4545 -1.2223,2.4566l2,0c0,-0.3632 0.1259,-0.6284 0.4417,-0.8714l-1.2194,-1.5852zm-1.2223,2.4566c0,1.3857 0.7694,2.4156 2.0094,3.0626l0.9252,-1.7732c-0.7227,-0.377 -0.9346,-0.7977 -0.9346,-1.2894l-2,0zm2.0248,3.0704c1.1187,0.5594 3.1452,1.2425 5.9984,2.0517l0.5456,-1.9242c-2.8641,-0.8122 -4.7203,-1.4517 -5.6496,-1.9163l-0.8944,1.7888zm5.9839,2.0474c2.1115,0.6335 3.8193,1.239 5.1345,1.8144l0.8016,-1.8324c-1.4155,-0.6192 -3.2064,-1.2511 -5.3614,-1.8976l-0.5747,1.9156zm5.1589,1.8247c1.2778,0.5191 2.6387,1.2874 4.0832,2.3192l1.1624,-1.6274c-1.5421,-1.1016 -3.0399,-1.9545 -4.4928,-2.5448l-0.7528,1.853zm4.0989,2.3302c1.3383,0.9177 2.3262,2.1143 2.9768,3.6069l1.8334,-0.7992c-0.8,-1.8354 -2.0308,-3.3268 -3.6792,-4.4571l-1.131,1.6494zm2.9898,3.6354c0.6914,1.4597 1.0557,3.2271 1.0557,5.3319l2,0c0,-2.3325 -0.4037,-4.4051 -1.2483,-6.1881l-1.8074,0.8562zm1.0557,5.3319c0,4.306 -1.4731,7.5409 -4.3594,9.8421l1.2468,1.5638c3.4284,-2.7335 5.1126,-6.5812 5.1126,-11.4059l-2,0zm-4.3581,9.841c-2.8845,2.2918 -6.8848,3.495 -12.1139,3.495l0,2c5.5229,0 10.0132,-1.2715 13.3581,-3.929l-1.2442,-1.566zm21.9956,-8.945l-1,0l0,1l1,0l0,-1zm14.72,0l1,0l0,-1l-1,0l0,1zm0,12.416l0,1l1,0l0,-1l-1,0zm-27.52,0l-1,0l0,1l1,0l0,-1zm0,-44.8l0,-1l-1,0l0,1l1,0zm12.8,0l1,0l0,-1l-1,0l0,1zm0,33.384l14.72,0l0,-2l-14.72,0l0,2zm13.72,-1l0,12.416l2,0l0,-12.416l-2,0zm1,11.416l-27.52,0l0,2l27.52,0l0,-2zm-26.52,1l0,-44.8l-2,0l0,44.8l2,0zm-1,-43.8l12.8,0l0,-2l-12.8,0l0,2zm11.8,-1l0,32.384l2,0l0,-32.384l-2,0zm40.447,12.8l0,-1l-1,0l0,1l1,0zm11.839,0l1,0l0,-1l-1,0l0,1zm0,32l0,1l1,0l0,-1l-1,0zm-11.839,0l-1,0l0,1l1,0l0,-1zm0,-2.88l1,0l0,-2.8137l-1.776,2.1826l0.776,0.6311zm-19.136,-1.024l-0.761,0.6491l0.761,-0.6491zm0,-24.192l-0.761,-0.6491l0.761,0.6491zm19.136,-1.024l-0.776,0.6311l1.776,2.1826l0,-2.8137l-1,0zm-9.857,17.408l-0.747,0.6644l0.007,0.0076l0.007,0.0074l0.733,-0.6794zm8.256,0l-0.733,-0.6794l-0.007,0.0074l-0.007,0.0076l0.747,0.6644zm0,-8.576l-0.747,0.6644l0.007,0.0076l0.007,0.0074l0.733,-0.6794zm-8.256,0l-0.733,-0.6794l-0.007,0.0074l-0.007,0.0076l0.747,0.6644zm9.857,-10.712l11.839,0l0,-2l-11.839,0l0,2zm10.839,-1l0,32l2,0l0,-32l-2,0zm1,31l-11.839,0l0,2l11.839,0l0,-2zm-10.839,1l0,-2.88l-2,0l0,2.88l2,0zm-1.776,-3.5111c-1.832,2.2516 -4.388,3.4071 -7.801,3.4071l0,2c3.926,0 7.088,-1.3618 9.352,-4.1449l-1.551,-1.2622zm-7.801,3.4071c-4.024,0 -7.263,-1.4779 -9.799,-4.4491l-1.521,1.2982c2.926,3.4288 6.727,5.1509 11.32,5.1509l0,-2zm-9.799,-4.4491c-2.552,-2.9912 -3.856,-6.7815 -3.856,-11.4469l-2,0c0,5.0626 1.426,9.3363 4.335,12.7451l1.521,-1.2982zm-3.856,-11.4469c0,-4.6654 1.304,-8.4557 3.856,-11.4469l-1.521,-1.2982c-2.909,3.4088 -4.335,7.6825 -4.335,12.7451l2,0zm3.856,-11.4469c2.536,-2.9712 5.775,-4.4491 9.799,-4.4491l0,-2c-4.593,0 -8.394,1.7221 -11.32,5.1509l1.521,1.2982zm9.799,-4.4491c3.413,0 5.969,1.1555 7.801,3.4071l1.551,-1.2622c-2.264,-2.7831 -5.426,-4.1449 -9.352,-4.1449l0,2zm9.577,2.776l0,-2.88l-2,0l0,2.88l2,0zm-11.59,18.0874c1.273,1.3755 2.935,2.0486 4.894,2.0486l0,-2c-1.456,0 -2.567,-0.4789 -3.427,-1.4074l-1.467,1.3588zm4.894,2.0486c1.958,0 3.608,-0.6738 4.843,-2.0636l-1.495,-1.3288c-0.813,0.9142 -1.893,1.3924 -3.348,1.3924l0,2zm4.829,-2.0486c1.254,-1.3537 1.867,-3.0327 1.867,-4.9674l-2,0c0,1.4786 -0.454,2.6583 -1.334,3.6086l1.467,1.3588zm1.867,-4.9674c0,-1.9347 -0.613,-3.6137 -1.867,-4.9674l-1.467,1.3588c0.88,0.9503 1.334,2.13 1.334,3.6086l2,0zm-1.853,-4.9524c-1.235,-1.3898 -2.885,-2.0636 -4.843,-2.0636l0,2c1.455,0 2.535,0.4782 3.348,1.3924l1.495,-1.3288zm-4.843,-2.0636c-1.959,0 -3.621,0.6731 -4.894,2.0486l1.467,1.3588c0.86,-0.9285 1.971,-1.4074 3.427,-1.4074l0,-2zm-4.908,2.0636c-1.204,1.3552 -1.788,3.0291 -1.788,4.9524l2,0c0,-1.4901 0.439,-2.6748 1.283,-3.6236l-1.495,-1.3288zm-1.788,4.9524c0,1.9233 0.584,3.5972 1.788,4.9524l1.495,-1.3288c-0.844,-0.9488 -1.283,-2.1335 -1.283,-3.6236l-2,0zm58.18,-13.248l-0.758,0.6519l0.006,0.0071l0.006,0.007l0.746,-0.666zm3.2,29.248l0,1l1,0l0,-1l-1,0zm-11.84,0l-1,0l0,1l1,0l0,-1zm-7.232,-20.16l-0.759,-0.6508l-0.009,0.0107l-0.009,0.0109l0.777,0.6292zm-1.088,20.16l0,1l1,0l0,-1l-1,0zm-11.84,0l-1,0l0,1l1,0l0,-1zm0,-32l0,-1l-1,0l0,1l1,0zm11.84,0l1,0l0,-1l-1,0l0,1zm0,3.136l-1,0l0,3.0654l1.808,-2.4757l-0.808,-0.5897zm8.576,-3.032c3.237,0 5.744,1.1106 7.626,3.2999l1.516,-1.3038c-2.299,-2.6747 -5.382,-3.9961 -9.142,-3.9961l0,2zm7.638,3.314c1.905,2.134 2.946,5.4353 2.946,10.086l2,0c0,-4.9066 -1.093,-8.7734 -3.454,-11.418l-1.492,1.332zm2.946,10.086l0,18.496l2,0l0,-18.496l-2,0zm1,17.496l-11.84,0l0,2l11.84,0l0,-2zm-10.84,1l0,-17.216l-2,0l0,17.216l2,0zm0,-17.216c0,-1.5651 -0.36,-2.9252 -1.258,-3.8952c-0.911,-0.9846 -2.212,-1.3928 -3.71,-1.3928l0,2c1.148,0 1.831,0.3065 2.242,0.7512c0.425,0.4594 0.726,1.2432 0.726,2.5368l2,0zm-4.968,-5.288c-1.638,0 -3.028,0.5325 -4.023,1.6932l1.518,1.3016c0.541,-0.6313 1.327,-0.9948 2.505,-0.9948l0,-2zm-4.041,1.7148c-0.915,1.1299 -1.311,2.6175 -1.311,4.3412l2,0c0,-1.4336 0.329,-2.4207 0.865,-3.0828l-1.554,-1.2584zm-1.311,4.3412l0,16.448l2,0l0,-16.448l-2,0zm1,15.448l-11.84,0l0,2l11.84,0l0,-2zm-10.84,1l0,-32l-2,0l0,32l2,0zm-1,-31l11.84,0l0,-2l-11.84,0l0,2zm10.84,-1l0,3.136l2,0l0,-3.136l-2,0zm1.808,3.7257c1.748,-2.3943 4.286,-3.6217 7.768,-3.6217l0,-2c-4.027,0 -7.207,1.4606 -9.384,4.4423l1.616,1.1794zm46.312,-3.7257l0,-1l-1,0l0,1l1,0zm11.839,0l1,0l0,-1l-1,0l0,1zm-1.472,37.824l-0.894,-0.4472l-0.004,0.0078l-0.004,0.0079l0.902,0.4315zm-3.839,4.608l-0.565,-0.8253l-0.007,0.005l-0.008,0.0051l0.58,0.8152zm-5.376,2.56l-0.272,-0.9623l-0.006,0.0016l0.278,0.9607zm-16.065,-1.216l-0.425,0.9048l0.425,-0.9048zm-6.464,-5.76l-0.501,-0.865l-0.858,0.4975l0.49,0.862l0.869,-0.4945zm9.6,-5.568l0.806,-0.5921l-0.531,-0.7232l-0.776,0.4503l0.501,0.865zm10.112,1.984l-0.547,-0.837l-0.011,0.0073l-0.011,0.0075l0.569,0.8222zm1.665,-6.592l1,0l0,-2.8137l-1.776,2.1826l0.776,0.6311zm-19.137,-0.896l-0.751,0.6593l0.005,0.0057l0.746,-0.665zm0,-23.168l-0.746,-0.665l-0.005,0.0058l0.751,0.6592zm19.137,-0.896l-0.776,0.6311l1.776,2.1826l0,-2.8137l-1,0zm-9.857,16.576l-0.734,0.6783l0.007,0.0075l0.007,0.0073l0.72,-0.6931zm8.256,0l-0.72,-0.6931l-0.007,0.0073l-0.007,0.0075l0.734,0.6783zm0,-8.192l-0.734,0.6783l0.007,0.0075l0.007,0.0073l0.72,-0.6931zm-8.256,0l-0.72,-0.6931l-0.007,0.0073l-0.007,0.0075l0.734,0.6783zm9.857,-10.264l11.839,0l0,-2l-11.839,0l0,2zm10.839,-1l0,31.04l2,0l0,-31.04l-2,0zm0,31.04c0,2.4306 -0.465,4.5344 -1.366,6.3368l1.789,0.8944c1.061,-2.1229 1.577,-4.5418 1.577,-7.2312l-2,0zm-1.374,6.3525c-0.871,1.8215 -2.041,3.2146 -3.502,4.2142l1.129,1.6506c1.782,-1.219 3.171,-2.898 4.178,-5.0018l-1.805,-0.863zm-3.517,4.2243c-1.525,1.0841 -3.213,1.8885 -5.068,2.4129l0.543,1.9246c2.07,-0.585 3.967,-1.4872 5.684,-2.7071l-1.159,-1.6304zm-5.074,2.4145c-1.824,0.5269 -3.757,0.7927 -5.802,0.7927l0,2c2.22,0 4.341,-0.2889 6.357,-0.8713l-0.555,-1.9214zm-5.802,0.7927c-3.633,0 -6.811,-0.66 -9.559,-1.9528l-0.851,1.8096c3.055,1.4379 6.533,2.1432 10.41,2.1432l0,-2zm-9.559,-1.9528c-2.739,-1.2891 -4.727,-3.0764 -6.02,-5.3497l-1.739,0.989c1.523,2.6761 3.844,4.7287 6.908,6.1703l0.851,-1.8096zm-6.388,-3.9902l9.6,-5.568l-1.003,-1.73l-9.6,5.568l1.003,1.73zm8.293,-5.8409c1.725,2.3481 4.094,3.5439 7.014,3.5439l0,-2c-2.286,0 -4.056,-0.8949 -5.403,-2.7281l-1.611,1.1842zm7.014,3.5439c1.674,0 3.178,-0.4338 4.473,-1.3298l-1.139,-1.6444c-0.924,0.64 -2.022,0.9742 -3.334,0.9742l0,2zm4.451,-1.315c1.44,-0.9419 2.117,-2.418 2.117,-4.229l-2,0c0,1.261 -0.434,2.0462 -1.212,2.555l1.095,1.674zm2.117,-4.229l0,-3.2l-2,0l0,3.2l2,0zm-1.776,-3.8311c-1.832,2.2516 -4.388,3.4071 -7.801,3.4071l0,2c3.926,0 7.088,-1.3618 9.352,-4.1449l-1.551,-1.2622zm-7.801,3.4071c-3.988,0 -7.234,-1.441 -9.813,-4.337l-1.493,1.33c2.968,3.3333 6.762,5.007 11.306,5.007l0,-2zm-9.808,-4.3312c-2.552,-2.9114 -3.847,-6.5301 -3.847,-10.9248l-2,0c0,4.8213 1.435,8.9253 4.344,12.2432l1.503,-1.3184zm-3.847,-10.9248c0,-4.3947 1.295,-8.0134 3.847,-10.9248l-1.503,-1.3184c-2.909,3.3179 -4.344,7.4219 -4.344,12.2432l2,0zm3.842,-10.919c2.579,-2.896 5.825,-4.337 9.813,-4.337l0,-2c-4.544,0 -8.338,1.6737 -11.306,5.007l1.493,1.33zm9.813,-4.337c3.413,0 5.969,1.1555 7.801,3.4071l1.551,-1.2622c-2.264,-2.7831 -5.426,-4.1449 -9.352,-4.1449l0,2zm9.577,2.776l0,-2.88l-2,0l0,2.88l2,0zm-11.577,17.2691c1.276,1.3278 2.935,1.9709 4.881,1.9709l0,-2c-1.468,0 -2.583,-0.4662 -3.44,-1.3571l-1.441,1.3862zm4.881,1.9709c1.945,0 3.591,-0.6435 4.83,-1.9857l-1.469,-1.3566c-0.809,0.8765 -1.894,1.3423 -3.361,1.3423l0,2zm4.816,-1.9709c1.256,-1.3063 1.88,-2.9246 1.88,-4.7891l-2,0c0,1.3782 -0.444,2.4906 -1.321,3.4029l1.441,1.3862zm1.88,-4.7891c0,-1.8645 -0.624,-3.4828 -1.88,-4.7891l-1.441,1.3862c0.877,0.9123 1.321,2.0247 1.321,3.4029l2,0zm-1.866,-4.7743c-1.239,-1.3422 -2.885,-1.9857 -4.83,-1.9857l0,2c1.467,0 2.552,0.4658 3.361,1.3423l1.469,-1.3566zm-4.83,-1.9857c-1.946,0 -3.605,0.6431 -4.881,1.9709l1.441,1.3862c0.857,-0.8909 1.972,-1.3571 3.44,-1.3571l0,-2zm-4.895,1.9857c-1.208,1.3085 -1.801,2.9219 -1.801,4.7743l2,0c0,-1.3903 0.43,-2.5075 1.27,-3.4177l-1.469,-1.3566zm-1.801,4.7743c0,1.8524 0.593,3.4658 1.801,4.7743l1.469,-1.3566c-0.84,-0.9102 -1.27,-2.0274 -1.27,-3.4177l-2,0z" fill="#696969"/>
  </symbol>
  <symbol height="80" id="svg_4" viewBox="0 0 80 80" width="80" xmlns="http://www.w3.org/2000/svg">
   <path d="m74.0086,13.7931l-68.01719,0c-3.30907,0 -5.99141,2.6824 -5.99141,5.9914l0,40.4311c0,3.3089 2.68234,5.9914 5.99141,5.9914l68.01719,0c3.3089,0 5.9914,-2.6823 5.9914,-5.9914l0,-40.4311c0,-3.309 -2.6823,-5.9914 -5.9914,-5.9914z" fill="#41479B"/>
   <path d="m79.917,18.7941c-0.4722,-2.8374 -2.937,-5.0011 -5.9084,-5.0011l-1.5589,0l-25.5531,16.7417l0,-16.7416l-13.7932,0l0,16.7417l-25.55309,-16.7417l-1.5589,0c-2.97141,0 -5.43625,2.1636 -5.90844,5.0011l21.84033,14.3094l-21.9233,0l0,13.7931l21.9233,0l-21.84033,14.3091c0.47219,2.8373 2.93703,5.0011 5.90844,5.0011l1.5589,0l25.55309,-16.7417l0,16.7417l13.7932,0l0,-16.7417l25.5531,16.7417l1.5589,0c2.9714,0 5.4362,-2.1636 5.9084,-5.0011l-21.8403,-14.3094l21.9233,0l0,-13.7931l-21.9233,0l21.8403,-14.3092z" fill="#F5F5F5"/>
   <path d="m44.138,13.7931l-8.276,0l0,22.0689l-35.862,0l0,8.276l35.862,0l0,22.0689l8.276,0l0,-22.0689l35.862,0l0,-8.276l-35.862,0l0,-22.0689z" fill="#FF4B55"/>
   <path d="m3.87394,65.8206l29.15356,-18.924l-5.0668,0l-26.51942,17.2143c0.64891,0.7574 1.48282,1.3508 2.43266,1.7097z" fill="#FF4B55"/>
   <path d="m54.1232,46.8966l-5.0669,0l28.2368,18.3289c0.7902,-0.5189 1.4496,-1.2199 1.9199,-2.043l-25.0898,-16.2859z" fill="#FF4B55"/>
   <path d="m0.63269,17.1055l24.64531,15.9979l5.0669,0l-27.9269,-18.1281c-0.74984,0.5581 -1.36343,1.2878 -1.78531,2.1302z" fill="#FF4B55"/>
   <path d="m51.9635,33.1034l26.568,-17.2461c-0.6561,-0.7548 -1.4966,-1.3448 -2.453,-1.6968l-29.1819,18.9429l5.0669,0z" fill="#FF4B55"/>
  </symbol>
 </defs>
 <g class="layer">
  <title>Layer 1</title>
  <g id="svg_3"/>
  <use id="svg_5" transform="matrix(0.739917, 0, 0, 0.739917, -0.699609, 19.5626)" x="1.421051" xlink:href="#svg_4" y="-39.719916"/>
  <g id="svg_6"/>
  <use id="svg_7" transform="matrix(0.733945, 0, 0, 0.733945, 0, 0)" x="5.450001" xlink:href="#svg_1" y="4.087499"/>
  <g id="svg_8"/>
 </g>
</svg>