<svg width="1920" height="1080" xmlns="http://www.w3.org/2000/svg" fill="none">
 <g>
  <title>Layer 1</title>
  <g>
   <path fill="black" d="m1452.61801,491.13472l-6.56,0l0,-41.281c0,-4.145 -3.36,-7.506 -7.505,-7.506l-5.04,0l-17.609,-49.278l0,-59.215c0,-1.473 -0.168,-2.941 -0.501,-4.376c-3.983,-17.132 -30.335,-130.3033 -30.335,-130.3033l0,-47.34734c0,-3.91981 -2.866,-7.42118 -6.769,-7.79271c-4.475,-0.42782 -8.243,3.08106 -8.243,7.46997l0,47.59128c0,0 -26.356,113.2481 -30.337,130.3821c-0.334,1.435 -0.501,2.901 -0.501,4.374l0,59.215l-17.607,49.28l-5.025,0c-4.145,0 -7.505,3.361 -7.505,7.506l0,41.281l-6.575,0c-4.145,0 -7.506,3.36 -7.506,7.505l0,151.989c0,4.145 3.361,7.506 7.506,7.506l6.575,0l0,313.359c0,4.145 3.36,7.506 7.505,7.506l121.967,0c4.145,0 7.505,-3.361 7.505,-7.506l0,-313.359l6.56,0c4.145,0 7.506,-3.361 7.506,-7.506l0,-151.989c0,-4.145 -3.361,-7.505 -7.506,-7.505zm-75.056,-258.2553l21.372,91.2553l-42.744,0l21.372,-91.2553zm-23.333,106.2663l15.827,0l0,24.393c0,4.145 3.361,7.506 7.506,7.506c4.145,0 7.506,-3.361 7.506,-7.506l0,-24.393l15.825,0l0,48.787l-46.666,0l0,-48.787l0.002,0zm-2.599,63.798l51.864,0l14.079,39.404l-80.022,0l14.079,-39.404zm-27.538,54.416l106.955,0l0,33.775l-11.727,0l0,-12.762c0,-4.145 -3.361,-7.505 -7.506,-7.505c-4.145,0 -7.506,3.36 -7.506,7.505l0,12.762l-19.233,0l0,-12.762c0,-4.145 -3.36,-7.505 -7.505,-7.505c-4.145,0 -7.506,3.36 -7.506,7.505l0,12.762l-19.233,0l0,-12.762c0,-4.145 -3.361,-7.505 -7.506,-7.505c-4.145,0 -7.505,3.36 -7.505,7.505l0,12.762l-11.728,0l0,-33.775zm15.486,506.629l-15.486,0l0,-82.562l15.486,0l0,82.562zm0,-97.573l-15.486,0l0,-93.821l15.486,0l0,93.821zm30.486,97.573l-15.475,0l0,-82.562l15.475,0l0,82.562l0,0zm0,-97.573l-15.475,0l0,-93.821l15.475,0l0,93.821l0,0zm30.484,97.573l-15.475,0l0,-82.562l15.475,0l0,82.562zm0,-97.573l-15.475,0l0,-93.821l15.475,0l0,93.821zm30.499,97.573l-15.486,0l0,-82.562l15.486,0l0,82.562l0,0zm0,-97.573l-15.486,0l0,-93.821l15.486,0l0,93.821l0,0zm0,-108.832l-15.486,0l0,-77.871c0,-4.145 -3.361,-7.505 -7.506,-7.505c-4.144,0 -7.505,3.36 -7.505,7.505l0,77.871l-15.475,0l0,-77.871c0,-4.145 -3.36,-7.505 -7.505,-7.505c-4.145,0 -7.506,3.36 -7.506,7.505l0,77.871l-15.475,0l0,-77.871c0,-4.145 -3.36,-7.505 -7.505,-7.505c-4.145,0 -7.506,3.36 -7.506,7.505l0,77.871l-15.486,0l0,-99.449l106.955,0l0,99.449l0,0zm14.066,-114.46l-135.102,0l0,-136.978l135.102,0l0,136.978z"/>
   <path fill="black" d="m1377.56201,629.05072c30.006,0 54.416,-24.412 54.416,-54.416c0,-30.004 -24.41,-54.416 -54.416,-54.416c-30.006,0 -54.416,24.412 -54.416,54.416c0,30.004 24.41,54.416 54.416,54.416zm0,-93.821c21.729,0 39.404,17.678 39.404,39.405c0,21.727 -17.675,39.404 -39.404,39.404c-21.729,0 -39.405,-17.677 -39.405,-39.404c0,-21.727 17.676,-39.405 39.405,-39.405z"/>
   <path fill="black" d="m1377.56201,582.13972l18.764,0c4.145,0 7.506,-3.36 7.506,-7.505c0,-4.145 -3.361,-7.506 -7.506,-7.506l-11.258,0l0,-11.493c0,-4.145 -3.361,-7.505 -7.506,-7.505c-4.145,0 -7.506,3.36 -7.506,7.505l0,18.999c0,4.145 3.361,7.505 7.506,7.505z"/>
  </g>
  <g>
   <ellipse fill="#0B0E1B" ry="124.5" rx="1017.5" cy="1049.0968" cx="944.84831"/>
  </g>
 </g>

</svg>