<svg width="51" height="51" viewBox="0 0 51 51" fill="none" xmlns="http://www.w3.org/2000/svg">
<path d="M25.5 0C11.3922 0 0 11.4272 0 25.5C0 39.589 11.4132 51 25.5 51C39.6501 51 51 39.535 51 25.5C51 11.3941 39.5643 0 25.5 0ZM38.6223 40.5189C34.9874 43.7042 30.3778 45.4444 25.5 45.4444C20.6231 45.4444 16.0142 43.7048 12.3797 40.5207C11.888 40.09 11.6658 39.428 11.7969 38.7877C13.0524 32.6549 16.9588 27.8182 21.9312 26.2269C19.3364 24.6909 17.5556 21.5352 17.5556 17.8889C17.5556 12.7342 21.1124 8.55556 25.5 8.55556C29.8876 8.55556 33.4444 12.7342 33.4444 17.8889C33.4444 21.5347 31.6641 24.6899 29.0701 26.2261C34.0424 27.8171 37.9489 32.6537 39.2049 38.7859C39.3359 39.4253 39.1132 40.0887 38.6223 40.5189Z" fill="black"/>
</svg>
